<mxfile host="app.diagrams.net" modified="2024-05-25T05:03:14.950Z" agent="Mozilla/5.0 (Windows NT 10.0; Win64; x64) AppleWebKit/537.36 (KHTML, like Gecko) Chrome/125.0.0.0 Safari/537.36" etag="ouIFDPTlFyDaYCSaeYVC" version="24.4.8" type="device">
  <diagram name="페이지-1" id="hKb_oDDfv6RiXR2AsoDt">
    <mxGraphModel dx="453" dy="646" grid="1" gridSize="10" guides="1" tooltips="1" connect="1" arrows="1" fold="1" page="1" pageScale="1" pageWidth="827" pageHeight="1169" math="0" shadow="0">
      <root>
        <mxCell id="0" />
        <mxCell id="1" parent="0" />
        <mxCell id="g7mCVB_rRe4b5HGAGwwJ-3" value="" style="endArrow=classic;html=1;rounded=0;" parent="1" edge="1">
          <mxGeometry width="50" height="50" relative="1" as="geometry">
            <mxPoint x="581.9985714285714" y="360" as="sourcePoint" />
            <mxPoint x="745.5" y="360" as="targetPoint" />
          </mxGeometry>
        </mxCell>
        <mxCell id="S8HFpGUDUiRMA5G_zweh-31" value="2: restoreMailDo(msgId)" style="html=1;verticalAlign=bottom;endArrow=block;curved=0;rounded=0;" parent="1" edge="1">
          <mxGeometry x="-0.0012" width="80" relative="1" as="geometry">
            <mxPoint x="580" y="420" as="sourcePoint" />
            <mxPoint x="745" y="420" as="targetPoint" />
            <mxPoint as="offset" />
          </mxGeometry>
        </mxCell>
        <mxCell id="S8HFpGUDUiRMA5G_zweh-32" value="" style="shape=umlLifeline;perimeter=lifelinePerimeter;whiteSpace=wrap;html=1;container=1;dropTarget=0;collapsible=0;recursiveResize=0;outlineConnect=0;portConstraint=eastwest;newEdgeStyle={&quot;curved&quot;:0,&quot;rounded&quot;:0};participant=umlActor;" parent="1" vertex="1">
          <mxGeometry x="570" y="280" width="20" height="250" as="geometry" />
        </mxCell>
        <mxCell id="S8HFpGUDUiRMA5G_zweh-33" value="" style="html=1;points=[[0,0,0,0,5],[0,1,0,0,-5],[1,0,0,0,5],[1,1,0,0,-5]];perimeter=orthogonalPerimeter;outlineConnect=0;targetShapes=umlLifeline;portConstraint=eastwest;newEdgeStyle={&quot;curved&quot;:0,&quot;rounded&quot;:0};" parent="S8HFpGUDUiRMA5G_zweh-32" vertex="1">
          <mxGeometry x="5" y="40" width="10" height="200" as="geometry" />
        </mxCell>
        <mxCell id="S8HFpGUDUiRMA5G_zweh-34" value="User" style="text;html=1;align=center;verticalAlign=middle;whiteSpace=wrap;rounded=0;" parent="1" vertex="1">
          <mxGeometry x="550" y="250" width="60" height="30" as="geometry" />
        </mxCell>
        <mxCell id="S8HFpGUDUiRMA5G_zweh-36" value="1.1: trash.jsp" style="html=1;verticalAlign=bottom;endArrow=open;dashed=1;endSize=8;curved=0;rounded=0;" parent="1" edge="1">
          <mxGeometry x="0.0018" relative="1" as="geometry">
            <mxPoint x="749.5" y="384" as="sourcePoint" />
            <mxPoint x="585" y="384" as="targetPoint" />
            <mxPoint as="offset" />
          </mxGeometry>
        </mxCell>
        <mxCell id="S8HFpGUDUiRMA5G_zweh-37" value=":System" style="shape=umlLifeline;perimeter=lifelinePerimeter;whiteSpace=wrap;html=1;container=1;dropTarget=0;collapsible=0;recursiveResize=0;outlineConnect=0;portConstraint=eastwest;newEdgeStyle={&quot;edgeStyle&quot;:&quot;elbowEdgeStyle&quot;,&quot;elbow&quot;:&quot;vertical&quot;,&quot;curved&quot;:0,&quot;rounded&quot;:0};" parent="1" vertex="1">
          <mxGeometry x="700" y="280" width="100" height="250" as="geometry" />
        </mxCell>
        <mxCell id="S8HFpGUDUiRMA5G_zweh-38" value="" style="html=1;points=[[0,0,0,0,5],[0,1,0,0,-5],[1,0,0,0,5],[1,1,0,0,-5]];perimeter=orthogonalPerimeter;outlineConnect=0;targetShapes=umlLifeline;portConstraint=eastwest;newEdgeStyle={&quot;curved&quot;:0,&quot;rounded&quot;:0};" parent="S8HFpGUDUiRMA5G_zweh-37" vertex="1">
          <mxGeometry x="45" y="50" width="10" height="190" as="geometry" />
        </mxCell>
        <mxCell id="H2Y1nmCzdkWhHdB9gPzo-2" value="" style="html=1;points=[[0,0,0,0,5],[0,1,0,0,-5],[1,0,0,0,5],[1,1,0,0,-5]];perimeter=orthogonalPerimeter;outlineConnect=0;targetShapes=umlLifeline;portConstraint=eastwest;newEdgeStyle={&quot;curved&quot;:0,&quot;rounded&quot;:0};" parent="S8HFpGUDUiRMA5G_zweh-37" vertex="1">
          <mxGeometry x="51" y="164" width="10" height="10" as="geometry" />
        </mxCell>
        <mxCell id="H2Y1nmCzdkWhHdB9gPzo-1" value="" style="endArrow=classic;html=1;rounded=0;" parent="1" edge="1">
          <mxGeometry width="50" height="50" relative="1" as="geometry">
            <mxPoint x="755.0238095238096" y="425" as="sourcePoint" />
            <mxPoint x="760" y="450" as="targetPoint" />
            <Array as="points">
              <mxPoint x="775" y="425" />
              <mxPoint x="775" y="450" />
            </Array>
          </mxGeometry>
        </mxCell>
        <mxCell id="H2Y1nmCzdkWhHdB9gPzo-4" value="&lt;font style=&quot;font-size: 10px;&quot;&gt;2.1: 휴지통에서 메일 정보 제거&lt;/font&gt;" style="text;html=1;align=center;verticalAlign=middle;whiteSpace=wrap;rounded=0;" parent="1" vertex="1">
          <mxGeometry x="770" y="430" width="153" height="30" as="geometry" />
        </mxCell>
        <mxCell id="H2Y1nmCzdkWhHdB9gPzo-5" value="" style="endArrow=classic;html=1;rounded=0;dashed=1;" parent="1" edge="1">
          <mxGeometry width="50" height="50" relative="1" as="geometry">
            <mxPoint x="745" y="485" as="sourcePoint" />
            <mxPoint x="585" y="485" as="targetPoint" />
          </mxGeometry>
        </mxCell>
        <mxCell id="H2Y1nmCzdkWhHdB9gPzo-6" value="&lt;font style=&quot;font-size: 8px;&quot;&gt;2.2:&amp;nbsp; 복구한 메일을 제외한 버려진 메일 목록을 보여준다&lt;/font&gt;" style="text;html=1;align=center;verticalAlign=middle;whiteSpace=wrap;rounded=0;" parent="1" vertex="1">
          <mxGeometry x="535" y="460" width="270" height="30" as="geometry" />
        </mxCell>
        <mxCell id="g7mCVB_rRe4b5HGAGwwJ-4" value="&lt;font style=&quot;font-size: 10px;&quot;&gt;1: trash()&lt;/font&gt;" style="text;html=1;align=center;verticalAlign=middle;whiteSpace=wrap;rounded=0;" parent="1" vertex="1">
          <mxGeometry x="610" y="330" width="100" height="30" as="geometry" />
        </mxCell>
      </root>
    </mxGraphModel>
  </diagram>
</mxfile>
